<svg xmlns="http://www.w3.org/2000/svg" width="145" height="113" viewBox="0 0 145 113">
    <path fill="#C8D6EC" fill-rule="evenodd" d="M72.05-31.187a1.621 1.621 0 0 1-2.217.586 1.62 1.62 0 0 1-.58-2.218 1.62 1.62 0 0 1 2.216-.584 1.62 1.62 0 0 1 .58 2.216zm-9.733 16.222a1.62 1.62 0 0 1-2.216.585 1.62 1.62 0 0 1-.58-2.217 1.62 1.62 0 0 1 2.216-.585 1.62 1.62 0 0 1 .58 2.217zm17.843-30.82a1.62 1.62 0 0 1-2.796-1.632 1.62 1.62 0 0 1 2.216-.585 1.62 1.62 0 0 1 .58 2.217zM53.396-.365A1.62 1.62 0 0 1 51.18.22a1.62 1.62 0 0 1-.58-2.217 1.62 1.62 0 0 1 2.216-.585 1.62 1.62 0 0 1 .58 2.217zM36.363 29.644a1.62 1.62 0 0 1-2.215.585 1.62 1.62 0 0 1-.58-2.217 1.62 1.62 0 0 1 2.215-.585 1.62 1.62 0 0 1 .58 2.217zm-8.11 14.599a1.62 1.62 0 0 1-2.216.584 1.62 1.62 0 0 1-.58-2.216 1.62 1.62 0 0 1 2.215-.585 1.62 1.62 0 0 1 .58 2.217zm17.843-30.82a1.62 1.62 0 0 1-2.216.584 1.62 1.62 0 0 1-.58-2.217 1.62 1.62 0 0 1 2.215-.585 1.62 1.62 0 0 1 .58 2.217zM19.33 59.652a1.62 1.62 0 0 1-2.216.585 1.62 1.62 0 0 1-.58-2.217 1.62 1.62 0 0 1 2.215-.585 1.62 1.62 0 0 1 .58 2.217zm35.722-99.74a1.62 1.62 0 0 1-2.216.585 1.62 1.62 0 0 1-.58-2.217 1.62 1.62 0 0 1 2.216-.585 1.62 1.62 0 0 1 .58 2.217zm-8.111 14.599a1.62 1.62 0 0 1-2.216.584 1.62 1.62 0 0 1-.58-2.216 1.62 1.62 0 0 1 2.216-.585 1.62 1.62 0 0 1 .58 2.217zm17.842-30.01a1.62 1.62 0 0 1-2.796-1.632 1.62 1.62 0 0 1 2.216-.585 1.62 1.62 0 0 1 .58 2.217zM38.02-10.078a1.62 1.62 0 1 1-2.796-1.632 1.62 1.62 0 0 1 2.216-.585 1.62 1.62 0 0 1 .58 2.217zM20.988 19.12a1.62 1.62 0 0 1-2.215.585 1.62 1.62 0 0 1-.58-2.217 1.62 1.62 0 0 1 2.215-.585 1.62 1.62 0 0 1 .58 2.217zm-9.732 16.222a1.62 1.62 0 0 1-2.215.585 1.62 1.62 0 0 1-.58-2.217 1.62 1.62 0 0 1 2.215-.585 1.62 1.62 0 0 1 .58 2.217zm18.652-30.01a1.62 1.62 0 0 1-2.215.584 1.62 1.62 0 0 1-.58-2.217 1.62 1.62 0 0 1 2.215-.585 1.62 1.62 0 0 1 .58 2.217zM3.145 49.94a1.62 1.62 0 0 1-2.216.585 1.62 1.62 0 0 1-.58-2.216 1.62 1.62 0 0 1 2.216-.585 1.62 1.62 0 0 1 .58 2.216zm84.28-71.413a1.62 1.62 0 0 1-2.796-1.632 1.62 1.62 0 0 1 2.216-.585 1.62 1.62 0 0 1 .58 2.217zm-9.731 15.41a1.62 1.62 0 0 1-2.216.585 1.62 1.62 0 0 1-.58-2.216 1.62 1.62 0 0 1 2.215-.585 1.621 1.621 0 0 1 .58 2.217zm17.842-30.01a1.62 1.62 0 0 1-2.215.586 1.62 1.62 0 0 1-.58-2.217 1.62 1.62 0 1 1 2.795 1.632zM69.582 9.348a1.62 1.62 0 0 1-2.216.585 1.62 1.62 0 0 1-.58-2.217 1.62 1.62 0 0 1 2.796 1.632zM52.55 38.545a1.62 1.62 0 0 1-2.216.585 1.62 1.62 0 0 1-.58-2.217 1.62 1.62 0 0 1 2.216-.585 1.62 1.62 0 0 1 .58 2.217zm-8.922 15.41a1.62 1.62 0 0 1-2.215.586 1.62 1.62 0 0 1-.58-2.217 1.62 1.62 0 0 1 2.215-.585 1.62 1.62 0 0 1 .58 2.217zm17.843-30.82a1.62 1.62 0 0 1-2.215.585 1.62 1.62 0 0 1-.58-2.217 1.62 1.62 0 0 1 2.215-.585 1.62 1.62 0 0 1 .58 2.217zm-26.764 45.42a1.62 1.62 0 0 1-2.215.585 1.62 1.62 0 0 1-.58-2.217 1.62 1.62 0 0 1 2.215-.585 1.62 1.62 0 0 1 .58 2.217zM102.8-10.95a1.62 1.62 0 0 1-2.215.584 1.62 1.62 0 0 1-.58-2.217 1.62 1.62 0 0 1 2.215-.584 1.62 1.62 0 0 1 .58 2.217zM94.69 3.649a1.62 1.62 0 0 1-2.216.585 1.62 1.62 0 0 1-.58-2.217 1.62 1.62 0 0 1 2.215-.585 1.62 1.62 0 0 1 .58 2.217zm17.033-31.63a1.62 1.62 0 0 1-2.215.585 1.62 1.62 0 0 1-.58-2.217 1.62 1.62 0 0 1 2.796 1.632zm-25.955 46.23a1.62 1.62 0 0 1-2.215.585 1.62 1.62 0 0 1-.58-2.217 1.62 1.62 0 0 1 2.215-.585 1.62 1.62 0 0 1 .58 2.217zM68.736 47.447a1.62 1.62 0 0 1-2.215.585 1.62 1.62 0 0 1-.58-2.217 1.62 1.62 0 0 1 2.215-.585 1.621 1.621 0 0 1 .58 2.217zm-8.921 15.41a1.62 1.62 0 0 1-2.216.585 1.62 1.62 0 0 1-.58-2.217 1.62 1.62 0 0 1 2.216-.585 1.62 1.62 0 0 1 .58 2.217zm17.032-30.009a1.62 1.62 0 0 1-2.215.585 1.62 1.62 0 0 1-.58-2.217 1.62 1.62 0 0 1 2.215-.585 1.62 1.62 0 0 1 .58 2.217zM50.894 77.457a1.62 1.62 0 0 1-2.216.585 1.62 1.62 0 0 1-.58-2.217 1.62 1.62 0 0 1 2.216-.585 1.62 1.62 0 0 1 .58 2.217zM119.796-2.05a1.62 1.62 0 1 1-2.795-1.632 1.62 1.62 0 0 1 2.215-.585 1.62 1.62 0 0 1 .58 2.217zm-8.92 14.6a1.62 1.62 0 1 1-2.796-1.632 1.62 1.62 0 0 1 2.796 1.632zm17.842-30.01a1.62 1.62 0 0 1-2.216.585 1.62 1.62 0 0 1-.58-2.217 1.62 1.62 0 0 1 2.216-.585 1.621 1.621 0 0 1 .58 2.217zm-28.382 43.8a1.62 1.62 0 0 1-2.796-1.632 1.62 1.62 0 0 1 2.216-.585 1.62 1.62 0 0 1 .58 2.217zm-17.033 30.01a1.62 1.62 0 0 1-2.796-1.632 1.62 1.62 0 0 1 2.796 1.632zM75.191 71.76a1.62 1.62 0 0 1-2.796-1.632 1.62 1.62 0 0 1 2.216-.586 1.62 1.62 0 0 1 .58 2.218zm17.033-30.01a1.62 1.62 0 1 1-2.796-1.631 1.62 1.62 0 0 1 2.216-.585 1.62 1.62 0 0 1 .58 2.217zM66.271 86.36a1.62 1.62 0 0 1-2.216.585 1.62 1.62 0 0 1-.58-2.217 1.62 1.62 0 1 1 2.796 1.632zm68.093-80.315a1.62 1.62 0 0 1-2.215.585 1.62 1.62 0 0 1-.58-2.217 1.62 1.62 0 0 1 2.215-.585 1.62 1.62 0 0 1 .58 2.217zm-8.921 15.41a1.62 1.62 0 0 1-2.216.585 1.62 1.62 0 0 1-.58-2.217 1.62 1.62 0 0 1 2.215-.585 1.62 1.62 0 0 1 .58 2.217zm17.032-30.009a1.62 1.62 0 0 1-2.216.585 1.62 1.62 0 0 1-.58-2.217 1.62 1.62 0 0 1 2.216-.585 1.62 1.62 0 0 1 .58 2.217zm-25.144 44.608a1.62 1.62 0 1 1-2.795-1.632 1.62 1.62 0 0 1 2.215-.585 1.621 1.621 0 0 1 .58 2.217zM100.3 66.062a1.62 1.62 0 0 1-2.216.585 1.62 1.62 0 0 1-.58-2.217 1.62 1.62 0 0 1 2.216-.585 1.621 1.621 0 0 1 .58 2.217zM91.378 80.66a1.62 1.62 0 0 1-2.216.585 1.621 1.621 0 0 1-.58-2.217 1.62 1.62 0 0 1 2.216-.585 1.62 1.62 0 0 1 .58 2.217zm17.842-30.01a1.62 1.62 0 0 1-2.215.585 1.62 1.62 0 0 1-.58-2.217 1.62 1.62 0 0 1 2.215-.585 1.62 1.62 0 0 1 .58 2.217zM83.267 95.26a1.62 1.62 0 0 1-2.216.585 1.62 1.62 0 0 1-.58-2.217 1.62 1.62 0 0 1 2.215-.585 1.62 1.62 0 0 1 .58 2.217zm67.282-78.694a1.621 1.621 0 0 1-2.216.585 1.62 1.62 0 0 1-.58-2.217 1.62 1.62 0 0 1 2.216-.584 1.62 1.62 0 0 1 .58 2.216zm-8.111 14.6a1.621 1.621 0 0 1-2.216.584 1.62 1.62 0 0 1-.58-2.217 1.62 1.62 0 0 1 2.216-.585 1.62 1.62 0 0 1 .58 2.217zm17.033-30.01a1.62 1.62 0 1 1-2.796-1.631 1.62 1.62 0 0 1 2.216-.586 1.62 1.62 0 0 1 .58 2.218zm-25.954 44.609a1.62 1.62 0 1 1-2.796-1.632 1.62 1.62 0 1 1 2.796 1.632zm-17.033 30.009a1.62 1.62 0 0 1-2.215.585 1.62 1.62 0 0 1-.58-2.217 1.62 1.62 0 0 1 2.215-.585 1.62 1.62 0 0 1 .58 2.217zm8.112-14.6a1.62 1.62 0 0 1-2.216.586 1.62 1.62 0 0 1-.58-2.217 1.62 1.62 0 0 1 2.215-.585 1.62 1.62 0 0 1 .58 2.217zm-26.763 43.8a1.62 1.62 0 0 1-2.216.584 1.62 1.62 0 0 1-.58-2.216 1.62 1.62 0 0 1 2.216-.585 1.62 1.62 0 0 1 .58 2.217zm8.112-15.41a1.62 1.62 0 1 1-2.796-1.632 1.62 1.62 0 0 1 2.216-.585 1.62 1.62 0 0 1 .58 2.217zm58.363-65.715a1.62 1.62 0 0 1-2.216.585 1.62 1.62 0 0 1-.58-2.217 1.62 1.62 0 1 1 2.796 1.632zm-8.111 14.599a1.62 1.62 0 0 1-2.216.585 1.621 1.621 0 0 1-.58-2.217 1.62 1.62 0 0 1 2.216-.585 1.62 1.62 0 0 1 .58 2.217zm17.843-30.82a1.62 1.62 0 0 1-2.796-1.632 1.62 1.62 0 0 1 2.216-.585 1.62 1.62 0 0 1 .58 2.217zm-27.574 45.42a1.62 1.62 0 1 1-2.796-1.632 1.62 1.62 0 0 1 2.216-.585 1.62 1.62 0 0 1 .58 2.217zm-17.033 30.82a1.62 1.62 0 0 1-2.216.585 1.621 1.621 0 1 1 1.636-2.802 1.62 1.62 0 0 1 .58 2.217zm8.112-15.41a1.62 1.62 0 0 1-2.216.585 1.62 1.62 0 0 1-.58-2.216 1.62 1.62 0 0 1 2.216-.585 1.62 1.62 0 0 1 .58 2.216zm-26.762 42.989a1.62 1.62 0 1 1-2.796-1.632 1.62 1.62 0 0 1 2.216-.585 1.62 1.62 0 0 1 .58 2.217zm8.919-12.979a1.62 1.62 0 0 1-2.216.585 1.621 1.621 0 0 1-.58-2.217 1.62 1.62 0 0 1 2.216-.585 1.621 1.621 0 0 1 .58 2.217z"/>
</svg>
