<svg xmlns="http://www.w3.org/2000/svg" width="177.417" height="112.466" viewBox="0 0 177.417 112.466"><defs><style>.a{fill:#fff;}.a,.b,.c{fill-rule:evenodd;}.b{fill:#e3e9fe;}.c{fill:#eef2f3;}</style></defs><g transform="translate(-25.85 -277.083)"><path class="a" d="M77.3,373.75h-.05L39.3,365.4l39.95,3.35h.05Z"/><path class="b" d="M121.95,311.45a27.006,27.006,0,0,1,3.9,4.55l.1.4-.25.25q-.2.2-.35.1a.545.545,0,0,1-.35-.2,21.268,21.268,0,0,0-3.7-4.35l-.2-.35a.48.48,0,0,1,.15-.35l.35-.2A.48.48,0,0,1,121.95,311.45Z"/><path class="b" d="M125.2,343.85a.6.6,0,0,1-.05.4l-2.95,4.5a42.954,42.954,0,0,0,4.65-.45l.4.1.2.35-.1.4a.48.48,0,0,1-.35.15,36.175,36.175,0,0,1-5.65.45l-.35-.2-.15-.3.15-.35.25-.15c-.033-.033-.084-.033-.15,0a.277.277,0,0,0-.225.125q1.638-2.244,3.125-4.625l.3-.5a.465.465,0,0,1,.3-.25.6.6,0,0,1,.4.05A.572.572,0,0,1,125.2,343.85Z"/><path class="b" d="M158.3,332.4l.35.2a.326.326,0,0,1,.1.4l-.15.3q-3,2.451-4.7,3.7a.46.46,0,0,1-.35.05.336.336,0,0,1-.3-.15.663.663,0,0,1-.15-.4l.2-.35q2.351-1.65,4.65-3.6A.479.479,0,0,1,158.3,332.4Z"/><path class="b" d="M116.85,309.15c0,.2-.05.317-.15.35l-.35.15-.85-.1a11.589,11.589,0,0,0-4.7,1.1.277.277,0,0,1-.35.05l-.35-.25a.418.418,0,0,1,0-.4l.25-.3a11.155,11.155,0,0,1,5.15-1.2l.95.1q.25,0,.3.15C116.85,308.967,116.883,309.083,116.85,309.15Z"/><path class="b" d="M106.7,314.75h-.05a18.427,18.427,0,0,0-2.2,5.1.572.572,0,0,1-.2.3.6.6,0,0,1-.4.05.567.567,0,0,1-.3-.2.6.6,0,0,1-.05-.4,20.919,20.919,0,0,1,2.3-5.4l.2-.2.35-.1.35.1.15.4Z"/><path class="b" d="M103.5,325.75l-.05,2.65q0,1.7.15,3.25a.542.542,0,0,1-.15.4l-.35.2a.513.513,0,0,1-.5-.5,21.511,21.511,0,0,1-.15-3.35,27.159,27.159,0,0,1,.05-2.75l.2-.3a.462.462,0,0,1,.4-.1l.3.15C103.533,325.533,103.567,325.65,103.5,325.75Z"/><path class="b" d="M103.85,337.3c.167-.133.267-.217.3-.25a.821.821,0,0,1,.4,0c.167.167.25.266.25.3a21.206,21.206,0,0,0,1.85,3.9l.95,1.4.1.35a.567.567,0,0,1-.2.3.505.505,0,0,1-.4.1.48.48,0,0,1-.35-.15l-.95-1.5v.05a19.435,19.435,0,0,1-1.95-4.1A.821.821,0,0,1,103.85,337.3Z"/><path class="b" d="M111.85,346.45a16.713,16.713,0,0,0,5.65,1.95l.25.25q.2.2.1.35a.32.32,0,0,1-.2.3.308.308,0,0,1-.4.1,18.231,18.231,0,0,1-5.9-2.1.567.567,0,0,1-.2-.3.455.455,0,0,1,.05-.35.468.468,0,0,1,.3-.25A.455.455,0,0,1,111.85,346.45Z"/><path class="b" d="M113.45,358l-.2.3a46.464,46.464,0,0,1-3.75,3h-.05l-1,.7a.48.48,0,0,1-.35.15l-.35-.25a.558.558,0,0,1-.05-.4c0-.1.067-.184.2-.25l1-.75h-.05q1.7-1.25,3.75-2.95a.54.54,0,0,1,.4-.15l.3.2A.54.54,0,0,1,113.45,358Z"/><path class="b" d="M103.55,364.65a.625.625,0,0,1,.05.4.471.471,0,0,1-.25.3,50.918,50.918,0,0,1-5.4,2.7.564.564,0,0,1-.4.05.639.639,0,0,1-.3-.3.628.628,0,0,1,0-.35c.033-.033.117-.134.25-.3a46.591,46.591,0,0,0,5.35-2.65.632.632,0,0,1,.4-.05A.572.572,0,0,1,103.55,364.65Z"/><path class="b" d="M86.2,370.8l.4-.1v-.05a50.293,50.293,0,0,0,5.4-1.4.333.333,0,0,1,.35,0l.25.3a.418.418,0,0,1,0,.4l-.35.25a55.015,55.015,0,0,1-5.4,1.45l-.4.1a.455.455,0,0,1-.35-.05.471.471,0,0,1-.25-.3.625.625,0,0,1,.05-.4A.567.567,0,0,1,86.2,370.8Z"/><path class="b" d="M199.4,283.1a.321.321,0,0,1-.2-.3.618.618,0,0,1,.05-.4l3.1-5.1a.567.567,0,0,1,.3-.2.455.455,0,0,1,.35.05.468.468,0,0,1,.25.3.455.455,0,0,1-.05.35l-3.1,5.15a.321.321,0,0,1-.3.2A.564.564,0,0,1,199.4,283.1Z"/><path class="b" d="M197,287.55a.578.578,0,0,1-.1.4l-3.3,4.95a.549.549,0,0,1-.35.2.277.277,0,0,1-.35-.05l-.25-.35a.486.486,0,0,1,.1-.35l3.3-4.95.3-.25a.578.578,0,0,1,.4.1Z"/><path class="b" d="M190.25,297.4a.309.309,0,0,1-.1.4q-1.851,2.65-3.55,4.85a.468.468,0,0,1-.3.25.856.856,0,0,1-.4-.15c-.1-.033-.15-.134-.15-.3a.626.626,0,0,1,.05-.4q2.049-2.65,3.55-4.8l.3-.25.4.1C190.183,297.233,190.25,297.333,190.25,297.4Z"/><path class="b" d="M182.9,307.5l-3.8,4.75c-.033.1-.15.15-.35.15q-.15.1-.35-.1-.15-.049-.15-.3a.564.564,0,0,1,.05-.4l3.8-4.7a.751.751,0,0,1,.4-.25l.3.1a.476.476,0,0,1,.2.4C183.033,307.217,183,307.333,182.9,307.5Z"/><path class="b" d="M171.1,321.15a.346.346,0,0,1-.35-.1l-.2-.35a.479.479,0,0,1,.15-.35l3.75-4.2.3-.15a.417.417,0,0,1,.4.1l.15.3a.309.309,0,0,1-.1.4l-3.75,4.2A.48.48,0,0,1,171.1,321.15Z"/><path class="b" d="M167.3,325.25q-2.451,2.55-4.25,4.15a.348.348,0,0,1-.35.1l-.35-.1a.509.509,0,0,1-.1-.4l.1-.35q2.8-2.6,4.25-4.1l.4-.15.3.15.2.35C167.433,325.1,167.367,325.217,167.3,325.25Z"/><path class="c" d="M79.3,368.75h-.05L39.3,365.4l37.95,8.35h.05l8.35,1.8,7,14-66.7-26.825-.1-.024L67,361Z"/></g></svg>