<svg xmlns="http://www.w3.org/2000/svg" width="198.45" height="137.333" viewBox="0 0 198.45 137.333"><defs><style>.a{fill:#e3e9fe;}.a,.c{fill-rule:evenodd;}.b,.c{fill:#f2f5ff;}</style></defs><g transform="translate(-568 -2138)"><g transform="translate(-33.85 1713.733)"><path class="a" d="M800.25,424.9a58.009,58.009,0,0,1-1.85,5.75,1,1,0,0,1-.35.25.406.406,0,0,1-.3.1.592.592,0,0,1-.3-.35.241.241,0,0,1,0-.35q1.2-3.3,1.85-5.65c0-.1.066-.183.2-.25a.388.388,0,0,1,.45-.1l.3.2A.423.423,0,0,1,800.25,424.9Z"/><path class="a" d="M795.25,435.65a.374.374,0,0,1,.45,0l.25.25-.05.4-2.9,5.35-.25.25a.824.824,0,0,1-.45-.1q-.15-.049-.15-.3c-.133-.134-.117-.25.05-.35l2.8-5.25C795.066,435.733,795.15,435.65,795.25,435.65Z"/><path class="a" d="M743.15,494.75l-.4-.25a.46.46,0,0,1-.05-.35.434.434,0,0,1,.2-.35l4.75-3.8a.491.491,0,0,1,.35-.1q.25,0,.3.15a.48.48,0,0,1,.15.35.431.431,0,0,1-.2.35l-4.75,3.9A.486.486,0,0,1,743.15,494.75Z"/><path class="a" d="M766.45,474.15a.431.431,0,0,1-.2.35l-4.35,4.25a.663.663,0,0,1-.4.15.637.637,0,0,1-.5-.5.473.473,0,0,1,.2-.4q2.25-2,4.35-4.2c.1-.033.233-.083.4-.15l.3.15A.431.431,0,0,1,766.45,474.15Z"/><path class="a" d="M757.5,482.5a.708.708,0,0,1-.1.4l-4.5,4-.4.1a.319.319,0,0,1-.3-.2.4.4,0,0,1-.2-.3.354.354,0,0,1,.25-.35l4.5-4c.033-.1.134-.15.3-.15a.665.665,0,0,1,.4.15Z"/><path class="a" d="M789.75,446.75l-3.5,5a.747.747,0,0,1-.3.25.815.815,0,0,1-.45-.1l-.2-.35a.45.45,0,0,1,.15-.4l3.5-4.9c.067-.167.166-.25.3-.25a.626.626,0,0,1,.4.05.48.48,0,0,1,.15.35A.278.278,0,0,1,789.75,446.75Z"/><path class="a" d="M782.75,456.05a.816.816,0,0,1-.1.45l-3.4,4.15a3.8,3.8,0,0,0-.6.65,1.025,1.025,0,0,1-.4.2l-.3-.1a.572.572,0,0,1-.2-.4.389.389,0,0,1,.15-.35l.6-.65,3.3-4.2a.856.856,0,0,1,.4-.15q.15-.1.35.1A.268.268,0,0,1,782.75,456.05Z"/><path class="a" d="M774.55,465.15c.134.034.2.15.2.35l-.1.3-4.15,4.45-.35.15c-.167-.067-.3-.117-.4-.15l-.1-.35.1-.4,4.15-4.35a.389.389,0,0,1,.35-.15Q774.5,465,774.55,465.15Z"/><path class="a" d="M713.75,514.5l5.05-3.25a.505.505,0,0,1,.4-.1c.133,0,.234.083.3.25a.278.278,0,0,1,.05.35q0,.25-.15.3l-5.15,3.25a.491.491,0,0,1-.35.1l-.35-.25a.563.563,0,0,1-.05-.4C713.5,514.65,713.583,514.566,713.75,514.5Z"/><path class="a" d="M723.55,508.15l.25-.25,4.9-3.5c.033-.067.15-.1.35-.1l.35.2a.708.708,0,0,1,.1.4.727.727,0,0,1-.25.35l-4.85,3.4a.509.509,0,0,1-.4.1.319.319,0,0,1-.3-.2A.45.45,0,0,1,723.55,508.15Z"/><path class="a" d="M699.05,523.65a.491.491,0,0,1,.1.35l-.25.3-5.25,2.75a.715.715,0,0,1-.4.1l-.3-.25q-.15-.251,0-.4a.42.42,0,0,1,.25-.35q3-1.5,5.25-2.75c.067-.067.166-.067.3,0A.45.45,0,0,1,699.05,523.65Z"/><path class="a" d="M688.5,529.4l-.25.25q-3.6,1.6-5.45,2.35a.333.333,0,0,1-.35,0l-.25-.25a.374.374,0,0,1,0-.45.447.447,0,0,1,.3-.25q1.75-.651,5.3-2.3a1.032,1.032,0,0,1,.45,0l.25.25A.423.423,0,0,1,688.5,529.4Z"/><path class="a" d="M665.75,538.55,618.3,555.5l46.1-23.8.55,2.8.575,2.85.2,1.125v.025Z"/><path class="a" d="M677.5,533.9l-.3.25q-3.25,1.05-5.7,1.6a.333.333,0,0,1-.35,0,.434.434,0,0,1-.2-.35c-.1-.1-.084-.233.05-.4.066-.134.15-.2.25-.2q2.5-.6,5.65-1.65a.328.328,0,0,1,.35,0,.727.727,0,0,1,.25.35A.423.423,0,0,1,677.5,533.9Z"/><path class="a" d="M739,497.4a.57.57,0,0,1,.05.4.479.479,0,0,1-.15.35l-4.85,3.6a.218.218,0,0,1-.3.05.389.389,0,0,1-.35-.15.54.54,0,0,1-.15-.4l.25-.35q3.6-2.649,4.75-3.6a.765.765,0,0,1,.45-.05Z"/><rect class="b" width="0.025" height="0.025" transform="translate(665.725 538.475)"/><path class="c" d="M690.875,545.8l-81.55,14.476L601.85,561.6l43.8-29.9H664.4l-46.1,23.8,47.45-16.95,10.35-3.75,17.25,10.55Z"/></g></g></svg>