<?xml version="1.0" encoding="utf-8"?>
<!-- Generator: Adobe Illustrator 17.0.0, SVG Export Plug-In . SVG Version: 6.00 Build 0)  -->
<!DOCTYPE svg PUBLIC "-//W3C//DTD SVG 1.1//EN" "http://www.w3.org/Graphics/SVG/1.1/DTD/svg11.dtd">
<svg version="1.1" id="Layer_1" xmlns="http://www.w3.org/2000/svg" xmlns:xlink="http://www.w3.org/1999/xlink" x="0px" y="0px"
	 width="1613.927px" height="3000px" viewBox="0 0 1613.927 3000" enable-background="new 0 0 1613.927 3000" xml:space="preserve">
<path fill="#F7F7F7" d="M-4.445,3012.443h1621.231c-2.468,0,3.852-2975.752-0.859-3012.443
	c-55.43,29.338-101.488,85.527-160.317,114.814c-47.3,23.556-104.538,37.933-157.424,28.957
	c-49.637-8.418-90.007-46.073-140.979-49.521c-66.183-4.463-110.986,49.8-158.256,87.049c-66.359,52.31-150.523,115.727-236,128.861
	c-55.153,8.444-99.653-16.38-133.929-58.168c-44.4-54.136-67.09-103.327-142.389-113.749
	c-58.175-8.038-124.736,6.821-171.452,43.486c-57.7,45.287-92.122,119.682-158.381,150.922
	c-23.641,10.998-49.748,15.622-75.728,13.414C64.172,344.696,13.961,321.57-1,334.756
	C-11.998,344.443-4.445,2997.609-4.445,3012.443z"/>
</svg>
