<?xml version="1.0" encoding="utf-8"?>
<!-- Generator: Adobe Illustrator 17.0.0, SVG Export Plug-In . SVG Version: 6.00 Build 0)  -->
<!DOCTYPE svg PUBLIC "-//W3C//DTD SVG 1.1//EN" "http://www.w3.org/Graphics/SVG/1.1/DTD/svg11.dtd">
<svg version="1.1" id="Layer_1" xmlns="http://www.w3.org/2000/svg" xmlns:xlink="http://www.w3.org/1999/xlink" x="0px" y="0px"
	 width="1411px" height="2000px" viewBox="0 -15.5 1411 2000" enable-background="new 0 -15.5 1411 2000" xml:space="preserve">
<path fill="#EEF2F3" stroke="#EEF2F3" stroke-width="0.0938" d="M1408.6,0h2.4v1986.5H0V44.6c42.1,20.4,81.5,46.1,124.4,65
	c41.8,18.2,86.9,28.1,132.2,31.8c43.5,3.9,88,0.3,129.8-13c49.1-17,90.1-51.4,139.8-67.2c16.2-4.8,32.9-8.4,49.8-8.2
	c52.7-1.4,101,24,145.4,49.6c26.7,13.8,53.8,26.8,80.7,40.2c29.6,14.1,58.4,30.3,89.2,41.9c64.6,25.8,133.3,46,203.3,44.9
	c50.8-1.2,100.5-23.7,135.1-60.9c36.6-37.6,58.7-86.9,97-123C1349.2,23.3,1378.4,8.8,1408.6,0z"/>
</svg>
