<svg xmlns="http://www.w3.org/2000/svg" width="78.912" height="80.935" viewBox="0 0 78.912 80.935"><defs><style>.a{fill:#eef2f3;}</style></defs><g transform="translate(288.03 -83.965)"><g transform="translate(-280.207 83.965)"><g transform="translate(0 5.149)"><g transform="translate(9.376 46.933)"><path class="a" d="M-275.532,117.213l-5.148-4.98,4.08-6.01,1.5,1.018-3.225,4.749,2.957,2.861,4.64-3.38,1.067,1.465Z" transform="translate(280.679 -106.223)"/></g><g transform="translate(0 22.645)"><path class="a" d="M-277.856,126.325l-6.83-6.608L-269.3,95.843l6.7,3.015-.743,1.652-5.282-2.375-13.733,21.313,4.2,4.061,7.839-11.774,1.508,1Z" transform="translate(284.686 -95.843)"/><g transform="translate(14.425 21.67)"><path class="a" d="M-271.692,127.87l-6.829-6.607,13.277-9.489,1.054,1.474-11.508,8.225,4.2,4.061,20.847-14.431-2.549-5.2,1.627-.8,3.234,6.6Z" transform="translate(278.521 -105.105)"/></g></g><g transform="translate(8.734 34.689)"><g transform="translate(0 0)"><rect class="a" width="31.673" height="1.812" transform="matrix(0.695, -0.719, 0.719, 0.695, 0, 22.759)"/></g></g><g transform="translate(11.964)"><path class="a" d="M-270.7,141.286l-8.877-8.587.08-.47c1.664-9.841,11.657-25.832,19.587-34.031,9.025-9.327,20.413-13.964,27.7-11.276a9.731,9.731,0,0,1,3.442,2.143c3.152,3.046,3.994,8.044,2.37,14.072-1.572,5.838-5.29,12-10.468,17.355-7.927,8.2-23.581,18.714-33.361,20.7Zm-6.926-9.221,7.5,7.254c9.483-2.153,24.339-12.212,31.958-20.088,10.125-10.464,13.775-23.412,8.14-28.864a7.96,7.96,0,0,0-2.81-1.743c-6.526-2.41-17.364,2.148-25.769,10.836C-266.224,107.335-275.785,122.516-277.622,132.065Z" transform="translate(279.573 -86.165)"/></g><g transform="translate(34.918 8.577)"><g transform="translate(14.772)"><path class="a" d="M-260.932,97.307a3.8,3.8,0,0,1-1.343-.847,3.832,3.832,0,0,1-1.175-2.707,3.825,3.825,0,0,1,1.086-2.745,3.857,3.857,0,0,1,4.109-.938,3.871,3.871,0,0,1,1.343.847,3.822,3.822,0,0,1,1.175,2.707,3.828,3.828,0,0,1-1.083,2.747A3.865,3.865,0,0,1-260.932,97.307Zm2.05-5.536a2.049,2.049,0,0,0-2.181.5,2.036,2.036,0,0,0-.576,1.455,2.038,2.038,0,0,0,.622,1.437,2.06,2.06,0,0,0,.714.449,2.045,2.045,0,0,0,2.178-.5,2.018,2.018,0,0,0,.576-1.455,2.027,2.027,0,0,0-.622-1.434A2.017,2.017,0,0,0-258.882,91.771Z" transform="translate(263.45 -89.831)"/></g><g transform="translate(7.387 7.635)"><path class="a" d="M-264.088,100.57a3.792,3.792,0,0,1-1.345-.847,3.859,3.859,0,0,1-.089-5.452,3.859,3.859,0,0,1,4.109-.938,3.879,3.879,0,0,1,1.345.847,3.862,3.862,0,0,1,.089,5.454A3.862,3.862,0,0,1-264.088,100.57Zm2.047-5.536a2.049,2.049,0,0,0-2.181.5,2.047,2.047,0,0,0,.049,2.892,2.03,2.03,0,0,0,.711.449,2.05,2.05,0,0,0,2.181-.5,2.046,2.046,0,0,0-.049-2.89A2,2,0,0,0-262.041,95.034Z" transform="translate(266.606 -93.094)"/></g><g transform="translate(0 15.271)"><path class="a" d="M-267.245,103.832a3.83,3.83,0,0,1-1.343-.845,3.827,3.827,0,0,1-1.175-2.71,3.822,3.822,0,0,1,1.083-2.745,3.856,3.856,0,0,1,4.111-.936,3.831,3.831,0,0,1,1.343.845,3.862,3.862,0,0,1,.089,5.454A3.857,3.857,0,0,1-267.245,103.832ZM-265.2,98.3a2.044,2.044,0,0,0-2.178.5,2.026,2.026,0,0,0-.576,1.455,2.029,2.029,0,0,0,.622,1.437,2.029,2.029,0,0,0,.711.449,2.049,2.049,0,0,0,2.181-.5,2.047,2.047,0,0,0-.049-2.892A2.029,2.029,0,0,0-265.2,98.3Z" transform="translate(269.763 -96.357)"/></g></g></g><g transform="translate(57.062 37.309)"><path class="a" d="M-259,105.647l-1.3-1.261a53.553,53.553,0,0,0,3.875-4.476l1.434,1.107A55.186,55.186,0,0,1-259,105.647Z" transform="translate(260.299 -99.91)"/></g><g transform="translate(47.127)"><path class="a" d="M-246.414,118.239l-1.537-.959a38.63,38.63,0,0,0,4.628-10.33c1.951-7.244.791-13.4-3.269-17.324s-10.246-4.883-17.422-2.693l-.531-1.734c7.836-2.391,14.661-1.282,19.215,3.124s5.887,11.189,3.758,19.1A40.428,40.428,0,0,1-246.414,118.239Z" transform="translate(264.545 -83.965)"/></g><g transform="translate(19.978 5.288)"><path class="a" d="M-274.669,105.358l-1.479-1.046a84.834,84.834,0,0,1,7.96-9.764,52.226,52.226,0,0,1,10.323-8.323l.943,1.549a50.22,50.22,0,0,0-9.963,8.035A82.651,82.651,0,0,0-274.669,105.358Z" transform="translate(276.148 -86.225)"/></g></g><g transform="translate(-288.03 148.263)"><g transform="translate(11.128)"><path class="a" d="M-281.6,116.42a2.564,2.564,0,0,1-.894-.564,2.57,2.57,0,0,1-.061-3.629,2.572,2.572,0,0,1,2.735-.625,2.552,2.552,0,0,1,.9.564,2.557,2.557,0,0,1,.782,1.8,2.555,2.555,0,0,1-.723,1.827A2.57,2.57,0,0,1-281.6,116.42Zm1.154-3.117a.752.752,0,0,0-.8.183.756.756,0,0,0,.016,1.067.77.77,0,0,0,1.069-.016.745.745,0,0,0,.211-.538.742.742,0,0,0-.229-.529A.724.724,0,0,0-280.445,113.3Z" transform="translate(283.274 -111.444)"/></g><g transform="translate(5.564 5.751)"><path class="a" d="M-283.975,118.878a2.552,2.552,0,0,1-.9-.564,2.57,2.57,0,0,1-.061-3.629,2.57,2.57,0,0,1,2.735-.625,2.552,2.552,0,0,1,.9.564,2.557,2.557,0,0,1,.781,1.8,2.545,2.545,0,0,1-.723,1.827A2.567,2.567,0,0,1-283.975,118.878Zm1.151-3.117a.752.752,0,0,0-.8.183.754.754,0,0,0,.019,1.067.767.767,0,0,0,1.067-.016.745.745,0,0,0,.211-.538.743.743,0,0,0-.229-.529A.7.7,0,0,0-282.823,115.762Z" transform="translate(285.652 -113.902)"/></g><g transform="translate(0 11.503)"><path class="a" d="M-286.355,121.336a2.564,2.564,0,0,1-.894-.564,2.57,2.57,0,0,1-.061-3.629,2.566,2.566,0,0,1,2.735-.622,2.512,2.512,0,0,1,.9.562,2.57,2.57,0,0,1,.059,3.629A2.569,2.569,0,0,1-286.355,121.336Zm1.154-3.117a.757.757,0,0,0-.8.183.754.754,0,0,0,.019,1.067.765.765,0,0,0,1.067-.016.754.754,0,0,0-.019-1.067A.7.7,0,0,0-285.2,118.219Z" transform="translate(288.03 -116.361)"/></g></g></g></svg>